<svg width="1440" height="128" viewBox="0 0 1440 128" fill="none" xmlns="http://www.w3.org/2000/svg">
<g filter="url(#filter0_d)">
<path d="M633.5 91.2663H0V0H1440V90.6887C1402.5 101.926 1384.14 76.2234 1356.2 82.6018C1320.79 90.6887 1313.5 117.649 1282.88 113.216C1258.34 109.664 1213.31 74.1636 1144 90.6887C1076.16 106.863 947.382 133.629 876.5 99.4156C786 55.733 787 90.6887 633.5 91.2663Z" fill="#263238"/>
<path d="M-2.5 91.2663V93.7663H0L633.5 93.7663L633.509 93.7663C692.329 93.545 728.642 88.2768 755.904 84.3219C764.296 83.1043 771.831 82.0112 778.9 81.2282C793.881 79.5687 806.769 79.2943 821.471 82.0885C836.206 84.8889 852.893 90.7969 875.413 101.667C911.499 119.085 961.998 120.881 1011.62 116.437C1061.34 111.984 1110.63 101.215 1144.58 93.1206C1178.68 84.9912 1206.79 89.6482 1229.48 96.8077C1239.7 100.032 1248.8 103.756 1256.91 107.077C1257.83 107.453 1258.74 107.824 1259.63 108.189C1268.32 111.729 1276.03 114.75 1282.52 115.691C1298.81 118.049 1308.97 111.941 1319.2 104.638C1320.25 103.888 1321.3 103.127 1322.36 102.359C1331.57 95.6782 1341.4 88.5464 1356.76 85.0391C1368.56 82.344 1378.48 85.6977 1389.83 89.5329C1391.11 89.9654 1392.41 90.4041 1393.73 90.8409C1406.67 95.1217 1421.23 98.9221 1440.72 93.0835L1442.5 92.5494V90.6887V0V-2.5H1440H0H-2.5V0V91.2663Z" stroke="#F2F2F2" stroke-width="5"/>
</g>
<defs>
<filter id="filter0_d" x="-10" y="-8" width="1460" height="136.001" filterUnits="userSpaceOnUse" color-interpolation-filters="sRGB">
<feFlood flood-opacity="0" result="BackgroundImageFix"/>
<feColorMatrix in="SourceAlpha" type="matrix" values="0 0 0 0 0 0 0 0 0 0 0 0 0 0 0 0 0 0 127 0"/>
<feOffset dy="2"/>
<feGaussianBlur stdDeviation="2.5"/>
<feColorMatrix type="matrix" values="0 0 0 0 0 0 0 0 0 0 0 0 0 0 0 0 0 0 0.2 0"/>
<feBlend mode="normal" in2="BackgroundImageFix" result="effect1_dropShadow"/>
<feBlend mode="normal" in="SourceGraphic" in2="effect1_dropShadow" result="shape"/>
</filter>
</defs>
</svg>
